<svg xmlns="http://www.w3.org/2000/svg" viewBox="0 0 135.467 135.467">
  <g transform="translate(-29.143126,-28.633801)">
    <path fill="#0E4D30" d="m 147.7193,33.086127 c -0.12936,0.485332 -7.69157,29.346127 -24.59628,49.894877 0,0 0.0182,0.0027 0.0182,0.0027 5.39367,4.292804 6.80748,11.977438 3.05754,17.788975 -5.23927,7.98276 -13.75796,0.37552 -13.41094,-6.808238 -0.03,-0.255687 -0.081,-0.478661 -0.11623,-0.642926 -4.85649,3.901151 -10.30544,6.907904 -16.335263,8.544924 -2.506597,6.00857 -4.249234,11.86458 -5.160295,17.57025 -0.45045,0.0733 -0.9085,-0.14221 -1.491546,-0.63585 -4.648836,-5.4857 -16.04031,-5.14757 -14.420617,4.26394 1.266731,7.03297 8.017494,11.79693 15.159037,10.86154 0.02467,10.05418 2.206439,19.07472 5.607647,27.93039 9.185707,-3.24537 19.529957,-9.60381 26.082777,-14.88727 0.41508,-0.33469 0.80098,-0.71114 1.22903,-1.04151 8.57563,-6.61915 14.71388,-17.79335 18.11549,-30.45807 4.06575,-15.13762 4.28971,-30.361052 4.94223,-41.40613 0.12052,-2.036861 0.18716,-2.91447 0.22336,-4.58413 0.28932,-12.567555 0.80649,-23.825823 1.09581,-36.393378 1e-5,-3.2e-5 3e-5,-6.4e-5 5e-5,-9.5e-5 z"/>
    <path fill="#C7E8CB" d="m 44.061295,33.187234 c -0.03914,-0.128724 1.149179,35.191028 1.167129,36.37324 0.03955,1.668725 0.108454,2.545376 0.232807,4.580967 0.674182,11.038128 0.927781,26.252939 5.02324,41.374809 3.426437,12.65153 9.586334,23.80876 18.174976,30.40769 0.428694,0.32935 0.815025,0.70452 1.230755,1.03822 6.5632,5.26791 16.949853,11.66922 26.141961,14.89488 -3.213405,-9.11069 -5.331442,-18.40021 -5.603822,-28.00325 -7.126099,0.97946 -13.858455,-3.7619 -15.13306,-10.8349 -1.6197,-9.4067 9.795801,-9.66728 14.444641,-4.18438 0.547898,0.46367 1.043809,0.62474 1.513109,0.58999 0.951845,-5.7085 2.60467,-11.58101 5.114158,-17.59341 C 91.467351,99.370188 87.113132,96.8696 83.2306,94.334721 83.021388,94.144764 82.812176,93.954807 82.602964,93.76485 81.167769,92.422692 80.734451,91.156827 82.309696,90.193949 88.976162,87.504714 92.317914,76.586179 82.879004,75.166228 76.934888,74.319244 71.33797,77.599919 68.879358,82.873328 52.719754,66.891669 50.029287,49.920268 44.061295,33.187234 Z"/>
    <path fill="#2F9E54" d="m 147.75032,33.085476 c -0.12937,0.485139 -7.62673,29.362452 -24.57808,49.854713 5.44146,4.227733 6.83196,11.948187 3.05714,17.795041 -5.23929,7.97828 -13.79889,0.38918 -13.45185,-6.790587 -0.0275,-0.233681 -0.0318,-0.454212 -0.1391,-0.574698 -4.90051,3.876018 -10.30083,6.838045 -16.271268,8.458075 -4.831469,-2.426473 -9.13244,-4.891504 -12.919751,-7.350168 -2.048929,-1.576368 -3.006043,-3.144505 -1.137758,-4.286448 6.66648,-2.689127 10.008233,-13.607158 0.569321,-15.027059 C 76.95754,74.32063 71.380637,77.572953 68.917761,82.865173 52.725136,66.924315 50.035272,49.936358 44.061246,33.187231 c 0.459996,0.04058 14.542225,9.053721 51.854915,10.49138 37.309749,-1.510893 51.374289,-10.551654 51.834199,-10.593138 0,3e-6 0,5e-6 -1e-5,8e-6"/>
    <path fill="#0A2E1D" d="m 96.04798,161.86251 c 0.572901,0.42968 21.50148,-7.72311 32.2632,-19.77921 10.76338,-12.05798 13.99924,-29.25424 13.99924,-29.25424 0.47049,-1.85599 1.77668,-8.41713 2.01556,-10.6252 0.0186,-0.17226 0.0496,-0.34414 0.0741,-0.51787 0.5,-3.524004 0.96572,-7.496383 1.23597,-11.366047 0.0433,-0.619633 0.10175,-1.211329 0.13272,-1.771266 l 0.1813,-3.274295 c -6.18714,24.209938 -17.72773,55.259638 -53.441918,63.455358 -0.09625,0.16857 0.799005,5.13149 3.539785,13.13277"/>
  </g>
</svg>
